<svg xmlns="http://www.w3.org/2000/svg" enable-background="new 0 0 64 64" viewBox="0 0 64 64"><path fill="#2b2e63" d="M32,0C14.4,0,0,14.4,0,32c0,17.6,14.4,32,32,32c17.7,0,32-14.4,32-32C64,14.4,49.7,0,32,0z M32,62.1
		C15.4,62.1,1.9,48.6,1.9,32C1.9,15.4,15.4,1.9,32,1.9c16.6,0,30.1,13.5,30.1,30.1C62.1,48.6,48.6,62.1,32,62.1z"/><path fill="#ededed" d="M32,1.9C15.4,1.9,1.9,15.4,1.9,32c0,16.6,13.5,30.1,30.1,30.1c16.6,0,30.1-13.5,30.1-30.1
		C62.1,15.4,48.6,1.9,32,1.9z M32,12.7c4.8,0,8.8,3.9,8.8,8.8c0,4.8-3.9,8.8-8.8,8.8c-4.8,0-8.8-3.9-8.8-8.8
		C23.3,16.7,27.2,12.7,32,12.7z M47.9,50.4H16.1c-0.5,0-1-0.4-1-1c0-9.3,7.6-16.9,16.9-16.9c9.3,0,16.9,7.6,16.9,16.9
		C48.9,50,48.5,50.4,47.9,50.4z"/><path fill="#d6d6d6" d="M32,1.9C15.4,1.9,1.9,15.4,1.9,32c0,16.6,13.5,30.1,30.1,30.1c16.6,0,30.1-13.5,30.1-30.1
		C62.1,15.4,48.6,1.9,32,1.9z M32,60.1C16.5,60.1,3.9,47.5,3.9,32S16.5,3.9,32,3.9S60.1,16.5,60.1,32S47.5,60.1,32,60.1z"/><path fill="#2b2e63" d="M32,32.5c-9.3,0-16.9,7.6-16.9,16.9c0,0.5,0.4,1,1,1h31.9c0.5,0,1-0.4,1-1C48.9,40.1,41.3,32.5,32,32.5z
		 M17.1,48.5c0.5-7.8,7-14,14.9-14c7.9,0,14.4,6.2,14.9,14H17.1z"/><path fill="#f26e61" d="M46.9,48.5H17.1c0.5-7.8,7-14,14.9-14C39.9,34.5,46.4,40.7,46.9,48.5z"/><path fill="#2b2e63" d="M32,12.7c-4.8,0-8.8,3.9-8.8,8.8c0,4.8,3.9,8.8,8.8,8.8c4.8,0,8.8-3.9,8.8-8.8C40.8,16.7,36.8,12.7,32,12.7z
		 M32,28.3c-3.8,0-6.8-3-6.8-6.8s3.1-6.8,6.8-6.8c3.8,0,6.8,3.1,6.8,6.8S35.8,28.3,32,28.3z"/><path fill="#ffe5ab" d="M38.8,21.5c0,3.8-3.1,6.8-6.8,6.8c-3.8,0-6.8-3-6.8-6.8s3.1-6.8,6.8-6.8C35.8,14.7,38.8,17.7,38.8,21.5z"/><path fill="#e15e5a" d="M32,34.5c-7.9,0-14.4,6.2-14.9,14h29.9C46.4,40.7,39.9,34.5,32,34.5z M32,36c6.5,0,12.1,4.7,13.2,11H18.8
		C19.9,40.7,25.5,36,32,36z"/><path fill="#f0d39a" d="M32,14.7c-3.8,0-6.8,3.1-6.8,6.8s3.1,6.8,6.8,6.8c3.8,0,6.8-3,6.8-6.8S35.8,14.7,32,14.7z M32,26.8
		c-2.9,0-5.3-2.4-5.3-5.3s2.4-5.3,5.3-5.3s5.3,2.4,5.3,5.3S34.9,26.8,32,26.8z"/></svg>